<svg id="fax_con" xmlns="http://www.w3.org/2000/svg" width="34" height="34" viewBox="0 0 34 34">
  <g id="fax_2_" data-name="fax (2)" transform="translate(0 -29)">
    <path id="Path_22" data-name="Path 22" d="M31.012,211H2.988A2.822,2.822,0,0,0,0,213.611v5.222a2.822,2.822,0,0,0,2.988,2.611H7.039v-.87a2.822,2.822,0,0,1,2.988-2.611H23.973a2.822,2.822,0,0,1,2.988,2.611v.87h4.051A2.822,2.822,0,0,0,34,218.833v-5.222A2.822,2.822,0,0,0,31.012,211Zm-10.027,4.352a.878.878,0,1,1,1-.87A.94.94,0,0,1,20.984,215.352Zm3.984,0a.878.878,0,1,1,1-.87A.94.94,0,0,1,24.969,215.352Z" transform="translate(0 -167.041)" fill="#efefef"/>
    <path id="Path_23" data-name="Path 23" d="M331,32.518v3.393h3.393A4.363,4.363,0,0,0,331,32.518Z" transform="translate(-308.662 -1.43)" fill="#efefef"/>
    <path id="Path_24" data-name="Path 24" d="M122.109,31a1.011,1.011,0,0,0-1.109.87V39.7h19.959V36.222h-5.544a1.011,1.011,0,0,1-1.109-.87V31Z" transform="translate(-113.979 0)" fill="#efefef"/>
    <path id="Path_25" data-name="Path 25" d="M149.055,367.962a.87.87,0,0,0,.87-.87V361.87a.87.87,0,0,0-.87-.87H136.87a.87.87,0,0,0-.87.87v5.222a.87.87,0,0,0,.87.87Zm-9.573-4.352h6.962a.87.87,0,0,1,0,1.741h-6.962a.87.87,0,1,1,0-1.741Z" transform="translate(-125.962 -307.08)" fill="#efefef"/>
  </g>
  <rect id="Rectangle_56" data-name="Rectangle 56" width="34" height="34" fill="none"/>
</svg>
