<svg id="Group_103" data-name="Group 103" xmlns="http://www.w3.org/2000/svg" width="34" height="34" viewBox="0 0 34 34">
  <path id="phone" d="M30.395,21.728a18.85,18.85,0,0,1-5.919-.941,2.541,2.541,0,0,0-2.576.545L18.152,24.16a20.932,20.932,0,0,1-9.313-9.311l2.753-3.658a2.628,2.628,0,0,0,.644-2.657,18.871,18.871,0,0,1-.947-5.928A2.605,2.605,0,0,0,8.684,0H2.605A2.605,2.605,0,0,0,0,2.605,30.429,30.429,0,0,0,30.395,33,2.605,2.605,0,0,0,33,30.395V24.333A2.605,2.605,0,0,0,30.395,21.728Z" transform="translate(0 0.876)" fill="#fff"/>
  <path id="phone-2" data-name="phone" d="M30.395,21.728a18.85,18.85,0,0,1-5.919-.941,2.541,2.541,0,0,0-2.576.545L18.152,24.16a20.932,20.932,0,0,1-9.313-9.311l2.753-3.658a2.628,2.628,0,0,0,.644-2.657,18.871,18.871,0,0,1-.947-5.928A2.605,2.605,0,0,0,8.684,0H2.605A2.605,2.605,0,0,0,0,2.605,30.429,30.429,0,0,0,30.395,33,2.605,2.605,0,0,0,33,30.395V24.333A2.605,2.605,0,0,0,30.395,21.728Z" transform="translate(1 0.876)" fill="#efefef"/>
  <rect id="Rectangle_55" data-name="Rectangle 55" width="34" height="34" fill="none"/>
</svg>
