<svg xmlns="http://www.w3.org/2000/svg" viewBox="0 0 32 18" width="32" height="18">
	<style>
		tspan { white-space:pre }
		.shp0 { fill: #ffffff } 
	</style>
	<path id="Shape 1" class="shp0" d="M28.82 17.32L14.68 3.18C14.09 2.6 14.09 1.65 14.68 1.06L14.68 1.06C15.26 0.47 16.21 0.47 16.8 1.06L30.94 15.2C31.53 15.79 31.53 16.74 30.94 17.32L30.94 17.32C30.35 17.91 29.4 17.91 28.82 17.32ZM1.06 15.2L15.2 1.06C15.79 0.47 16.74 0.47 17.32 1.06L17.32 1.06C17.91 1.65 17.91 2.6 17.32 3.18L3.18 17.32C2.6 17.91 1.65 17.91 1.06 17.32L1.06 17.32C0.47 16.74 0.47 15.79 1.06 15.2Z" />
</svg>