<svg xmlns="http://www.w3.org/2000/svg" viewBox="0 0 34 34" width="34" height="34">
	<style>
		tspan { white-space:pre }
		.shp0 { fill: #ffffff } 
	</style>
	<path id="Shape 2" class="shp0" d="M3.12 20.64L14.44 9.32C15.61 8.15 17.5 8.15 18.68 9.32L18.68 9.32C19.85 10.5 19.85 12.39 18.68 13.56L7.36 24.88C6.19 26.05 4.29 26.05 3.12 24.88L3.12 24.88C1.95 23.71 1.95 21.81 3.12 20.64ZM19.12 8.88L30.44 20.19C31.61 21.37 31.61 23.26 30.44 24.44L30.44 24.44C29.26 25.61 27.37 25.61 26.19 24.44L14.88 13.12C13.71 11.95 13.71 10.05 14.88 8.88L14.88 8.88C16.05 7.71 17.95 7.71 19.12 8.88Z" />
</svg>